<mxfile host="app.diagrams.net" modified="2023-10-25T01:29:15.755Z" agent="Mozilla/5.0 (Macintosh; Intel Mac OS X 10_15_7) AppleWebKit/605.1.15 (KHTML, like Gecko) Version/17.0 Safari/605.1.15" version="22.0.7" etag="mhPCeJngphNyCRyVfmtb" type="github">
  <diagram name="Page-1" id="S9z2Fm7azEg4q_rz2_9r">
    <mxGraphModel>
      <root>
        <mxCell id="0" />
        <mxCell id="1" parent="0" />
      </root>
    </mxGraphModel>
  </diagram>
</mxfile>
